<svg viewBox="0 0 64 64" xmlns="http://www.w3.org/2000/svg"><defs><filter id="s" x="-4%" y="-4%" width="108%" height="112%"><feDropShadow dx="0" dy="1" stdDeviation="1.2" flood-opacity=".1"/></filter></defs><path d="M12 4a4 4 0 0 0-4 4v48a4 4 0 0 0 4 4h40a4 4 0 0 0 4-4V18L42 4H12z" fill="#fff" filter="url(#s)" stroke="#e0e0e0" stroke-width=".8"/><path d="M42 4v10a4 4 0 0 0 4 4h10" fill="none" stroke="#e0e0e0" stroke-width=".8"/><path d="M42 4l14 14H46a4 4 0 0 1-4-4V4z" fill="#43A047" opacity=".8"/><g opacity=".18" stroke="#43A047" stroke-width="1.5" fill="none"><rect x="14" y="15" width="24" height="20" rx="1.5"/><line x1="14" y1="22" x2="38" y2="22"/><line x1="14" y1="29" x2="38" y2="29"/><line x1="22" y1="15" x2="22" y2="35"/><line x1="30" y1="15" x2="30" y2="35"/></g><rect x="10" y="40" width="44" height="17" rx="3.5" fill="#43A047"/><text x="32" y="52.2" font-family="Arial,Helvetica,sans-serif" font-size="10.5" font-weight="700" fill="#fff" text-anchor="middle">XLS</text></svg>